<svg xmlns="http://www.w3.org/2000/svg" xmlns:bx="https://boxy-svg.com" viewBox="0 0 90 90"
  width="90px" height="90px">
  <defs>
    <bx:export>
      <bx:file format="svg" />
    </bx:export>
  </defs>
  <rect width="10" height="10" style="" x="20" y="20" />
  <rect style="stroke-width: 1;" x="20" width="10" height="10" y="10" />
  <rect width="10" height="10" style="stroke-width: 1;" x="20" />
  <rect width="10" height="10" style="stroke-width: 1;" x="30" />
  <rect width="10" height="10" style="stroke-width: 1;" x="40" />
  <rect width="10" height="10" style="stroke-width: 1;" x="50" />
  <rect width="10" height="10" style="stroke-width: 1;" x="60" />
  <rect width="10" height="10" style="stroke-width: 1;" x="80" />
  <rect width="10" height="10" style="stroke-width: 1;" x="20" y="30" />
  <rect width="10" height="10" style="stroke-width: 1;" y="80" />
  <rect width="10" height="10" style="stroke-width: 1;" x="20" y="40" />
  <rect width="10" height="10" style="stroke-width: 1;" x="30" y="40" />
  <rect width="10" height="10" style="stroke-width: 1;" x="40" y="40" />
  <rect width="10" height="10" style="stroke-width: 1;" x="50" y="40" />
  <rect width="10" height="10" style="stroke-width: 1;" x="60" y="40" />
  <rect width="10" height="10" style="stroke-width: 1;" x="60" y="50" />
  <rect width="10" height="10" style="stroke-width: 1;" x="60" y="60" />
  <rect width="10" height="10" style="stroke-width: 1;" x="60" y="70" />
  <rect width="10" height="10" style="stroke-width: 1;" x="60" y="80" />
  <rect width="10" height="10" style="stroke-width: 1;" x="50" y="80" />
  <rect width="10" height="10" style="stroke-width: 1;" x="40" y="80" />
  <rect width="10" height="10" style="stroke-width: 1;" x="30" y="80" />
  <rect width="10" height="10" style="stroke-width: 1;" x="20" y="80" />
  <rect width="10" height="10" style="stroke-width: 1;" x="70" y="80" />
  <rect width="10" height="10" style="stroke-width: 1;" x="80" y="80" />
</svg>